<?xml version="1.0" encoding="UTF-8" standalone="no"?><!DOCTYPE svg PUBLIC "-//W3C//DTD SVG 1.1//EN" "http://www.w3.org/Graphics/SVG/1.1/DTD/svg11.dtd"><svg width="100%" height="100%" viewBox="0 0 10417 2917" version="1.1" xmlns="http://www.w3.org/2000/svg" xmlns:xlink="http://www.w3.org/1999/xlink" xml:space="preserve" xmlns:serif="http://www.serif.com/" style="fill-rule:evenodd;clip-rule:evenodd;stroke-linejoin:round;stroke-miterlimit:2;"><g><g><path d="M173.163,2713.21l1586.02,0l0,-372.976l-1132.87,0l-0,-2067.05l-453.149,0l0,2440.03Z" style="fill:#dedede;fill-rule:nonzero;"/></g><g><path d="M2045.02,2713.21l432.234,0l0,-1753.34l-432.234,-0l0,1753.34Zm216.117,-2000.83c160.345,0 282.347,-122.001 282.347,-282.346c-0,-156.86 -122.002,-278.861 -282.347,-278.861c-156.859,-0 -278.86,122.001 -278.86,278.861c-0,160.345 122.001,282.346 278.86,282.346Z" style="fill:#dedede;fill-rule:nonzero;"/></g><g><path d="M2836.28,2713.21l432.234,0l-0,-240.517c128.973,177.774 327.661,282.346 571.664,282.346c470.578,0 805.21,-379.947 805.21,-916.754c0,-540.293 -334.632,-920.24 -805.21,-920.24c-244.003,-0 -442.691,104.573 -571.664,282.346l-0,-927.212l-432.234,0l-0,2440.03Zm888.868,-1439.62c278.861,0 484.521,237.032 484.521,564.693c-0,324.176 -205.66,561.207 -484.521,561.207c-282.346,0 -481.034,-230.06 -481.034,-561.207c-0,-334.633 198.688,-564.693 481.034,-564.693Z" style="fill:#dedede;fill-rule:nonzero;"/></g><g><path d="M4941.7,2713.21l432.234,0l0,-745.952c0,-477.549 317.204,-630.922 651.837,-582.122l0,-428.748c-296.289,-59.258 -585.607,80.173 -662.294,484.521l10.457,-481.035l-432.234,-0l0,1753.34Z" style="fill:#dedede;fill-rule:nonzero;"/></g><g><path d="M6050.14,2678.35l425.262,76.686l379.948,-1760.31l-425.263,-76.686l-379.947,1760.31Zm470.577,-1965.97c160.345,0 282.347,-122.001 282.347,-282.346c-0,-156.86 -122.002,-278.861 -282.347,-278.861c-156.859,-0 -278.861,122.001 -278.861,278.861c0,160.345 122.002,282.346 278.861,282.346Z" style="fill:#dedede;fill-rule:nonzero;"/></g><g><path d="M8145.11,2699.26l-3.486,-362.519c-202.174,55.773 -338.118,0 -338.118,-237.031l-0,-780.81l439.205,-0l0,-359.033l-439.205,-0l-0,-442.691l-432.234,-0l-0,442.691l-310.233,-0l0,359.033l310.233,-0l-0,812.182c-0,540.292 418.291,683.208 773.838,568.178Z" style="fill:#dedede;fill-rule:nonzero;"/></g><g><path d="M9330.24,2765.49c529.835,-0 913.268,-386.919 913.268,-930.698c0,-540.292 -383.433,-927.211 -913.268,-927.211c-533.321,-0 -916.755,386.919 -916.755,927.211c0,543.779 383.434,930.698 916.755,930.698Zm-0,-366.005c-285.833,0 -481.035,-233.546 -481.035,-564.693c-0,-327.661 195.202,-561.207 481.035,-561.207c282.346,0 477.549,233.546 477.549,561.207c-0,331.147 -195.203,564.693 -477.549,564.693Z" style="fill:#dedede;fill-rule:nonzero;"/></g></g></svg>